# xmcd
#
# Track frame offsets:
#	150
#	5625
#	25200
#	41775
#	61050
#	84600
#	104850
#	124500
#	143625
#	162300
#	184575
#	202650
#	220125
#
# Disc length: 3205 seconds
#
# Revision: 1
# Processed by: cddbd v1.5.1PL0 Copyright (c) Steve Scherf et al.
# Submitted via: audiograbber 1.81.02
#
DISCID=ae0c830d
DTITLE=The Corrs - Live in London [CD1]
DYEAR=2001
DGENRE=Pop
TTITLE0=Intro
TTITLE1=Only when I sleep
TTITLE2=Give me a reason
TTITLE3=Irresistible
TTITLE4=Forgiven not forgotten
TTITLE5=What can I do?
TTITLE6=Joy of life
TTITLE7=Hurt before
TTITLE8=Someboy for someone
TTITLE9=Dreams
TTITLE10=The right time
TTITLE11=I never loved you anyway
TTITLE12=Runaway
EXTD=
EXTT0=
EXTT1=
EXTT2=
EXTT3=
EXTT4=
EXTT5=
EXTT6=
EXTT7=
EXTT8=
EXTT9=
EXTT10=
EXTT11=
EXTT12=
PLAYORDER=
